<?xml version="1.0" standalone="no"?>
<!DOCTYPE svg PUBLIC "-//W3C//DTD SVG 20010904//EN"
 "http://www.w3.org/TR/2001/REC-SVG-20010904/DTD/svg10.dtd">
<svg version="1.0" xmlns="http://www.w3.org/2000/svg"
 width="204.000000pt" height="204.000000pt" viewBox="0 0 204.000000 204.000000"
 preserveAspectRatio="xMidYMid meet">
<metadata>
Created by potrace 1.11, written by Peter Selinger 2001-2013
</metadata>
<g transform="translate(0.000000,204.000000) scale(0.100000,-0.100000)"
fill="#000000" stroke="none">
<path d="M100 1639 c-20 -4 -47 -21 -64 -40 -25 -28 -28 -37 -23 -79 8 -67 45
-143 117 -240 69 -93 260 -287 382 -390 67 -55 76 -66 65 -81 -6 -9 -42 -53
-78 -98 -106 -131 -153 -244 -130 -313 38 -114 235 -89 544 70 l108 55 132
-66 c254 -128 419 -161 488 -99 40 36 45 85 17 159 -25 67 -102 185 -162 249
l-46 49 62 55 c307 268 499 512 513 653 4 41 1 51 -23 78 -49 55 -138 55 -295
0 -169 -59 -406 -191 -604 -338 -40 -29 -77 -53 -81 -53 -5 0 -27 13 -49 29
-370 268 -725 431 -873 400z m203 -70 c88 -30 289 -130 405 -203 134 -83 272
-179 269 -188 -1 -4 -38 -37 -82 -73 -88 -73 -143 -123 -222 -198 -47 -46 -53
-48 -71 -35 -98 68 -365 331 -440 433 -118 159 -141 272 -60 293 40 10 118 -1
201 -29z m1662 15 c90 -67 -126 -379 -461 -664 l-81 -69 -69 67 c-85 82 -156
145 -274 240 -30 25 -42 15 160 150 237 158 484 275 615 289 28 3 51 7 53 8 6
5 37 -6 57 -21z m-851 -508 c50 -41 133 -113 184 -161 l92 -87 -57 -45 c-84
-66 -293 -203 -309 -203 -14 0 -285 180 -339 225 l-30 25 75 73 c69 67 279
247 289 247 2 0 45 -33 95 -74z m-267 -436 l133 -89 -46 -27 c-70 -41 -252
-119 -319 -137 -150 -40 -218 -20 -210 62 6 61 70 178 140 256 14 17 38 45 52
63 l25 32 47 -35 c25 -20 106 -76 178 -125z m601 123 c143 -169 215 -318 178
-368 -30 -41 -143 -32 -286 23 -82 31 -270 123 -270 132 0 3 31 25 69 49 39
24 116 77 173 117 56 41 105 74 107 74 3 0 16 -12 29 -27z"/>
</g>
</svg>
