<!--<svg xmlns="http://www.w3.org/2000/svg" viewBox="0 0 841.9 595.3">
    <g fill="#61DAFB">
        <path d="M666.3 296.5c0-32.5-40.7-63.3-103.1-82.4 14.4-63.6 8-114.2-20.2-130.4-6.5-3.8-14.1-5.6-22.4-5.6v22.3c4.6 0 8.3.9 11.4 2.6 13.6 7.8 19.5 37.5 14.9 75.7-1.1 9.4-2.9 19.3-5.1 29.4-19.6-4.8-41-8.5-63.5-10.9-13.5-18.5-27.5-35.3-41.6-50 32.6-30.3 63.2-46.9 84-46.9V78c-27.5 0-63.5 19.6-99.9 53.6-36.4-33.8-72.4-53.2-99.9-53.2v22.3c20.7 0 51.4 16.5 84 46.6-14 14.7-28 31.4-41.3 49.9-22.6 2.4-44 6.1-63.6 11-2.3-10-4-19.7-5.2-29-4.7-38.2 1.1-67.9 14.6-75.8 3-1.8 6.9-2.6 11.5-2.6V78.5c-8.4 0-16 1.8-22.6 5.6-28.1 16.2-34.4 66.7-19.9 130.1-62.2 19.2-102.7 49.9-102.7 82.3 0 32.5 40.7 63.3 103.1 82.4-14.4 63.6-8 114.2 20.2 130.4 6.5 3.8 14.1 5.6 22.5 5.6 27.5 0 63.5-19.6 99.9-53.6 36.4 33.8 72.4 53.2 99.9 53.2 8.4 0 16-1.8 22.6-5.6 28.1-16.2 34.4-66.7 19.9-130.1 62-19.1 102.5-49.9 102.5-82.3zm-130.2-66.7c-3.7 12.9-8.3 26.2-13.5 39.5-4.1-8-8.4-16-13.1-24-4.6-8-9.5-15.8-14.4-23.4 14.2 2.1 27.9 4.7 41 7.9zm-45.8 106.5c-7.8 13.5-15.8 26.3-24.1 38.2-14.9 1.3-30 2-45.2 2-15.1 0-30.2-.7-45-1.9-8.3-11.9-16.4-24.6-24.2-38-7.6-13.1-14.5-26.4-20.8-39.8 6.2-13.4 13.2-26.8 20.7-39.9 7.8-13.5 15.8-26.3 24.1-38.2 14.9-1.3 30-2 45.2-2 15.1 0 30.2.7 45 1.9 8.3 11.9 16.4 24.6 24.2 38 7.6 13.1 14.5 26.4 20.8 39.8-6.3 13.4-13.2 26.8-20.7 39.9zm32.3-13c5.4 13.4 10 26.8 13.8 39.8-13.1 3.2-26.9 5.9-41.2 8 4.9-7.7 9.8-15.6 14.4-23.7 4.6-8 8.9-16.1 13-24.1zM421.2 430c-9.3-9.6-18.6-20.3-27.8-32 9 .4 18.2.7 27.5.7 9.4 0 18.7-.2 27.8-.7-9 11.7-18.3 22.4-27.5 32zm-74.4-58.9c-14.2-2.1-27.9-4.7-41-7.9 3.7-12.9 8.3-26.2 13.5-39.5 4.1 8 8.4 16 13.1 24 4.7 8 9.5 15.8 14.4 23.4zM420.7 163c9.3 9.6 18.6 20.3 27.8 32-9-.4-18.2-.7-27.5-.7-9.4 0-18.7.2-27.8.7 9-11.7 18.3-22.4 27.5-32zm-74 58.9c-4.9 7.7-9.8 15.6-14.4 23.7-4.6 8-8.9 16-13 24-5.4-13.4-10-26.8-13.8-39.8 13.1-3.1 26.9-5.8 41.2-7.9zm-90.5 125.2c-35.4-15.1-58.3-34.9-58.3-50.6 0-15.7 22.9-35.6 58.3-50.6 8.6-3.7 18-7 27.7-10.1 5.7 19.6 13.2 40 22.5 60.9-9.2 20.8-16.6 41.1-22.2 60.6-9.9-3.1-19.3-6.5-28-10.2zM310 490c-13.6-7.8-19.5-37.5-14.9-75.7 1.1-9.4 2.9-19.3 5.1-29.4 19.6 4.8 41 8.5 63.5 10.9 13.5 18.5 27.5 35.3 41.6 50-32.6 30.3-63.2 46.9-84 46.9-4.5-.1-8.3-1-11.3-2.7zm237.2-76.2c4.7 38.2-1.1 67.9-14.6 75.8-3 1.8-6.9 2.6-11.5 2.6-20.7 0-51.4-16.5-84-46.6 14-14.7 28-31.4 41.3-49.9 22.6-2.4 44-6.1 63.6-11 2.3 10.1 4.1 19.8 5.2 29.1zm38.5-66.7c-8.6 3.7-18 7-27.7 10.1-5.7-19.6-13.2-40-22.5-60.9 9.2-20.8 16.6-41.1 22.2-60.6 9.9 3.1 19.3 6.5 28.1 10.2 35.4 15.1 58.3 34.9 58.3 50.6-.1 15.7-23 35.6-58.4 50.6zM320.8 78.4z"/>
        <circle cx="420.9" cy="296.5" r="45.7"/>
        <path d="M520.5 78.1z"/>
    </g>
</svg>-->
<svg version="1.1"
	 xmlns="http://www.w3.org/2000/svg" xmlns:xlink="http://www.w3.org/1999/xlink" xmlns:a="http://ns.adobe.com/AdobeSVGViewerExtensions/3.0/"
	 x="0px" y="0px" width="491.3px" height="157px" viewBox="0 0 491.3 157"
	 style="overflow:scroll;enable-background:new 0 0 491.3 157;" xml:space="preserve">
<style type="text/css">
	.st0{fill:#FFFFFF;}
</style>
<defs>
</defs>
<g>
	<path class="st0" d="M185.3,103.7c2,0.7,4,1.3,6.2,1.9s4.8,0.8,7.9,0.8c4.9,0,8.5-1,11-3c2.4-2,3.6-4.7,3.6-8.1
		c0-1.7-0.3-3.1-0.8-4.3c-0.5-1.2-1.3-2.2-2.3-3.1c-1-0.9-2.3-1.7-3.8-2.4c-1.5-0.7-3.3-1.5-5.3-2.3l-5.1-2.1
		c-1.7-0.7-3.3-1.5-4.7-2.4c-1.4-0.9-2.7-1.9-3.7-3.2c-1-1.3-1.9-2.7-2.5-4.3c-0.6-1.6-0.9-3.6-0.9-5.9c0-5.4,1.8-9.7,5.6-12.8
		c3.7-3.1,8.9-4.6,15.6-4.6c2.9,0,5.6,0.2,8.1,0.7c2.6,0.5,4.8,1.1,6.8,1.8c-0.3,2.5-1,5-2,7.4c-1.6-0.6-3.5-1.1-5.6-1.6
		c-2.1-0.5-4.5-0.7-7.2-0.7c-3.8,0-6.7,0.8-8.7,2.3c-2,1.5-3,3.8-3,6.8c0,1.3,0.3,2.4,0.8,3.4c0.5,1,1.2,1.9,2,2.6
		c0.8,0.7,1.8,1.4,3,2c1.1,0.6,2.3,1.1,3.6,1.6l5,2c2.4,1,4.5,2,6.4,3c1.8,1,3.4,2.3,4.7,3.7c1.3,1.4,2.3,3.1,3,5
		c0.7,1.9,1,4.1,1,6.7c0,6.1-2.1,11-6.4,14.5c-4.2,3.6-10.2,5.3-17.8,5.3c-1.8,0-3.5-0.1-5-0.2c-1.5-0.1-2.9-0.3-4.2-0.5
		c-1.3-0.2-2.5-0.5-3.7-0.9c-1.2-0.4-2.4-0.7-3.7-1.2c0.1-1.3,0.4-2.7,0.8-4C184.3,106.3,184.8,105,185.3,103.7z"/>
	<path class="st0" d="M234.9,67.5c0.6-0.1,1.2-0.2,1.8-0.3c0.6-0.1,1.3-0.1,1.9-0.1c0.6,0,1.2,0,1.9,0.1c0.7,0.1,1.3,0.1,1.9,0.3
		c0.1,0.1,0.1,0.5,0.2,1.1c0.1,0.6,0.2,1.3,0.3,2c0.1,0.7,0.2,1.4,0.3,2.1c0.1,0.7,0.1,1.1,0.1,1.3c0.6-1,1.3-1.9,2.1-2.8
		c0.8-0.9,1.8-1.7,3-2.4c1.2-0.7,2.5-1.3,3.9-1.7c1.5-0.4,3.1-0.6,4.9-0.6c2.7,0,5.2,0.4,7.5,1.3c2.3,0.9,4.3,2.3,5.9,4.2
		c1.6,1.9,2.9,4.3,3.8,7.2c0.9,2.9,1.4,6.3,1.4,10.3c0,7.9-2.1,14-6.4,18.5c-4.3,4.4-10.3,6.7-18.1,6.7c-1.3,0-2.7-0.1-4-0.3
		c-1.4-0.2-2.6-0.4-3.6-0.7v21c-0.7,0.1-1.5,0.2-2.3,0.3c-0.8,0.1-1.5,0.1-2.2,0.1c-0.7,0-1.4,0-2.2-0.1c-0.8-0.1-1.5-0.1-2.2-0.3
		V67.5z M243.7,105.9c1.1,0.4,2.3,0.7,3.5,0.9c1.2,0.2,2.7,0.3,4.7,0.3c2.1,0,4.1-0.3,5.9-1c1.8-0.7,3.3-1.7,4.6-3.2
		c1.3-1.4,2.3-3.2,3-5.4c0.7-2.2,1.1-4.8,1.1-7.7c0-4.8-0.9-8.6-2.6-11.4c-1.8-2.8-4.6-4.2-8.6-4.2c-1.5,0-2.9,0.3-4.3,0.8
		c-1.4,0.5-2.6,1.3-3.7,2.4c-1.1,1.1-1.9,2.4-2.6,4.1c-0.7,1.6-1,3.6-1,5.9V105.9z"/>
	<path class="st0" d="M294.4,92.7c0.1,5,1.4,8.7,3.9,11c2.5,2.3,6.1,3.5,11,3.5c4.2,0,8.3-0.7,12.1-2.2c0.5,0.9,0.9,2,1.2,3.3
		c0.3,1.3,0.5,2.6,0.5,3.8c-2,0.8-4.1,1.5-6.5,1.9c-2.4,0.4-5,0.6-7.8,0.6c-4.2,0-7.8-0.6-10.7-1.7c-3-1.2-5.4-2.8-7.4-4.9
		c-1.9-2.1-3.4-4.6-4.3-7.5c-0.9-2.9-1.3-6.1-1.3-9.5c0-3.4,0.4-6.6,1.3-9.5c0.9-3,2.2-5.5,4-7.7c1.8-2.2,4-3.9,6.8-5.2
		c2.7-1.3,5.9-1.9,9.6-1.9c3.2,0,5.9,0.5,8.3,1.6c2.4,1.1,4.4,2.6,6,4.4c1.6,1.9,2.8,4.1,3.7,6.7c0.8,2.6,1.3,5.4,1.3,8.5
		c0,0.8,0,1.7-0.1,2.6c-0.1,0.9-0.1,1.7-0.2,2.4H294.4z M317.1,86.1c0-1.7-0.2-3.3-0.7-4.8c-0.4-1.5-1.1-2.8-2-4
		c-0.9-1.1-2-2-3.3-2.7c-1.3-0.7-2.9-1-4.8-1c-3.6,0-6.4,1.1-8.4,3.3c-1.9,2.2-3.1,5.3-3.5,9.2H317.1z"/>
	<path class="st0" d="M368.2,105.5c0.5,0.8,0.9,1.9,1.3,3.1c0.4,1.3,0.6,2.5,0.6,3.8c-3.5,1.4-7.5,2.1-12.1,2.1
		c-7.6,0-13.4-2.2-17.3-6.5c-3.9-4.3-5.8-10.2-5.8-17.5c0-3.4,0.5-6.6,1.4-9.5c1-2.9,2.4-5.5,4.3-7.6s4.2-3.8,7-5.1
		c2.8-1.3,6.1-1.9,9.8-1.9c2.5,0,4.7,0.1,6.6,0.4c1.9,0.3,3.7,0.8,5.5,1.4c0,1-0.1,2.2-0.4,3.5s-0.6,2.5-1.1,3.5
		c-2.9-1-6.3-1.5-10-1.5c-4.6,0-8,1.5-10.3,4.6c-2.3,3-3.4,7.1-3.4,12.1c0,5.7,1.3,9.9,3.8,12.6c2.6,2.7,6.1,4,10.6,4
		c1.8,0,3.4-0.1,5-0.4C365.1,106.5,366.6,106.1,368.2,105.5z"/>
	<path class="st0" d="M379.8,67.5c0.7-0.1,1.4-0.2,2.2-0.3c0.8-0.1,1.6-0.1,2.1-0.1c0.7,0,1.4,0,2.2,0.1c0.8,0.1,1.6,0.1,2.2,0.3
		v25.2c0,2.9,0.3,5.2,0.8,7.1c0.5,1.9,1.3,3.4,2.4,4.4s2.4,1.8,3.9,2.2c1.6,0.4,3.3,0.6,5.4,0.6c3,0,5.6-0.3,7.8-1V67.5
		c0.7-0.1,1.4-0.2,2.2-0.3c0.8-0.1,1.5-0.1,2.2-0.1c0.7,0,1.4,0,2.2,0.1c0.8,0.1,1.5,0.1,2.2,0.3V112c-2.1,0.6-4.6,1.2-7.5,1.7
		c-2.9,0.5-5.9,0.8-9,0.8c-2.9,0-5.7-0.3-8.3-0.8c-2.6-0.5-4.9-1.5-6.8-3.1c-2-1.6-3.5-3.7-4.7-6.5c-1.1-2.8-1.7-6.5-1.7-11.1V67.5z
		"/>
	<path class="st0" d="M431.5,47.8c0.7-0.1,1.4-0.2,2.2-0.3c0.8-0.1,1.5-0.1,2.2-0.1c0.7,0,1.4,0,2.2,0.1c0.8,0.1,1.5,0.1,2.2,0.3
		v51.7c0,1.7,0.1,3,0.4,3.9c0.3,1,0.7,1.7,1.2,2.2c0.5,0.5,1.1,0.8,1.8,1c0.7,0.1,1.4,0.2,2.2,0.2c0.5,0,1.1,0,1.8-0.1
		c0.7-0.1,1.3-0.1,1.7-0.3c0.5,2.1,0.8,4.4,0.8,6.8c-0.8,0.3-1.9,0.5-3,0.6c-1.2,0.1-2.3,0.1-3.3,0.1c-1.7,0-3.3-0.2-4.8-0.6
		c-1.5-0.4-2.8-1.1-3.9-2.1c-1.1-1-2-2.2-2.7-3.8c-0.7-1.6-1-3.6-1-6V47.8z"/>
	<path class="st0" d="M482.6,83.2c0-3.5-0.9-6-2.7-7.3c-1.8-1.4-4.4-2.1-7.8-2.1c-2.1,0-4,0.2-5.9,0.5c-1.8,0.3-3.6,0.8-5.3,1.3
		c-1.1-2-1.7-4.3-1.7-7.1c2-0.7,4.3-1.2,6.7-1.5c2.4-0.4,4.8-0.5,7.1-0.5c6,0,10.5,1.4,13.6,4.1c3.1,2.7,4.7,7.1,4.7,13v28.7
		c-2.1,0.5-4.6,1-7.6,1.5c-3,0.5-6,0.8-9.1,0.8c-2.9,0-5.6-0.3-7.9-0.8c-2.4-0.5-4.4-1.4-6-2.6c-1.6-1.2-2.9-2.7-3.8-4.6
		s-1.3-4.1-1.3-6.7c0-2.6,0.5-4.8,1.6-6.8c1-1.9,2.5-3.5,4.3-4.8c1.8-1.3,3.8-2.2,6.2-2.9c2.3-0.6,4.8-0.9,7.3-0.9
		c1.9,0,3.5,0,4.7,0.1c1.2,0.1,2.3,0.2,3.1,0.3V83.2z M482.6,91.9c-0.9-0.1-2-0.2-3.4-0.4c-1.4-0.1-2.5-0.2-3.5-0.2
		c-3.7,0-6.5,0.7-8.5,2.1c-1.9,1.4-2.9,3.5-2.9,6.3c0,1.8,0.3,3.2,1,4.2c0.7,1,1.5,1.8,2.5,2.3c1,0.5,2.1,0.9,3.3,1
		c1.2,0.1,2.3,0.2,3.4,0.2c1.4,0,2.8-0.1,4.3-0.2c1.5-0.1,2.8-0.4,3.9-0.7V91.9z"/>
</g>
<g>
	<g>
		<path class="st0" d="M80.2,21.4c-4.2,7-5.2,14.7-2.9,23c1.2,4.3,3.1,7.8,5.8,10.5c2.6,2.7,5.9,4.8,9.6,6.4c3.8,1.5,8.1,2.7,13,3.5
			c4.9,0.8,10.1,1.5,15.5,2c7.5,0.9,14.5,1.9,21.2,3.2c5.3,1,10.1,2.5,14.5,4.4c-1.7-31.6-22-58.2-50.2-69.1c-0.1,0-0.2,0-0.3,0.1
			C93.2,9,84.4,14.4,80.2,21.4z"/>
		<path class="st0" d="M136.2,86.8c-5.9-1.2-13.2-2.2-21.9-3.1c-6.2-0.5-12.1-1.3-17.8-2.3c-5.7-1-10.9-2.7-15.7-5.1
			c-4.8-2.4-9-5.6-12.5-9.8c-3.6-4.2-6.4-9.9-8.4-17c-3.6-12.9-1.8-24.7,5.3-35.3C68.8,8.7,73.9,4,80.5,0.1c-0.7,0-1.3-0.1-2-0.1
			C35.1,0,0,35.1,0,78.5C0,121.9,35.1,157,78.5,157c37.8,0,69.3-26.7,76.8-62.2c-1.4-1.1-2.9-2.2-4.6-3.1
			C147,89.6,142.1,88,136.2,86.8z"/>
	</g>
</g>
</svg>
